
<svg width="525px" height="334px" viewBox="0 0 525 334" version="1.1" xmlns="http://www.w3.org/2000/svg" xmlns:xlink="http://www.w3.org/1999/xlink">
    <defs>
        <filter x="-3.2%" y="-5.2%" width="106.4%" height="110.4%" filterUnits="objectBoundingBox" id="filter-n88pdm6n0n-1">
            <feOffset dx="0" dy="0" in="SourceAlpha" result="shadowOffsetOuter1"></feOffset>
            <feGaussianBlur stdDeviation="4" in="shadowOffsetOuter1" result="shadowBlurOuter1"></feGaussianBlur>
            <feColorMatrix values="0 0 0 0 0.298936927   0 0 0 0 0.298936927   0 0 0 0 0.298936927  0 0 0 0.5 0" type="matrix" in="shadowBlurOuter1" result="shadowMatrixOuter1"></feColorMatrix>
            <feMerge>
                <feMergeNode in="shadowMatrixOuter1"></feMergeNode>
                <feMergeNode in="SourceGraphic"></feMergeNode>
            </feMerge>
        </filter>
    </defs>
    <g id="LOGO" stroke="none" stroke-width="1" fill="none" fill-rule="evenodd">
        <g id="FastChar" filter="url(#filter-n88pdm6n0n-1)" transform="translate(262.338528, 167.081592) scale(-1, 1) translate(-262.338528, -167.081592) translate(12.338528, 12.695312)">
            <path d="M417.743889,85.8562726 C407.543144,85.8562726 397.792431,87.8064151 388.791774,91.2066635 C381.591248,84.7061886 373.640667,78.7557538 364.990035,73.5553739 C363.789947,72.8053191 362.639863,72.0552643 361.389772,71.3552132 L176.976299,71.3552132 C174.976153,72.5052972 173.02601,73.7053849 171.075868,74.9054725 C149.674304,88.3564553 132.523051,106.007745 121.622255,126.409235 C118.522028,132.209659 116.071849,138.260101 114.021699,144.510558 C110.47144,155.261343 108.42129,166.512165 108.42129,178.21302 C108.42129,189.363835 110.321429,200.164624 113.571666,210.51538 C116.321867,219.316023 120.172149,227.716637 124.972499,235.667218 C137.323402,256.118712 155.974764,273.61999 178.976445,286.320918 L178.726427,286.320918 L178.726427,299.821905 C178.726427,304.772266 182.726719,308.772559 187.677081,308.772559 L350.588983,308.772559 C355.539344,308.772559 359.539637,304.772266 359.539637,299.821905 L359.539637,286.320918 L359.289618,286.320918 C377.040915,276.520202 392.192022,263.869278 403.892877,249.218208 C408.393206,249.968262 412.993542,250.468299 417.693885,250.468299 C463.097203,250.468299 499.999949,213.565603 499.999949,168.162286 C500.049902,122.758969 463.147206,85.8562726 417.743889,85.8562726 L417.743889,85.8562726 Z M418.44394,226.416542 C425.744474,211.465449 429.894777,195.214262 429.894777,178.163016 C429.894777,153.511215 421.344152,130.559539 406.743085,110.858099 C410.293345,110.158048 413.993615,109.758019 417.743889,109.758019 C449.896238,109.758019 476.048149,135.909929 476.048149,168.062278 C476.048149,200.064617 450.246264,226.066516 418.44394,226.416542 Z" id="形状" fill="#3DB6A4" fill-rule="nonzero"></path>
            <path d="M100.470709,178.21302 C100.470709,163.361935 103.370921,149.110894 108.671308,135.709915 C110.821466,130.159509 113.521663,124.859122 116.471878,119.658742 C84.6195512,79.8558342 46.0167309,74.0054068 44.2165994,73.7553885 C42.1664496,73.5053702 40.0162926,74.0054068 38.366172,75.2554981 L3.21360378,101.507416 C0.463402855,103.557566 -0.686681169,107.157829 0.413399202,110.45807 C1.51347957,113.708307 4.56370242,115.958472 8.01395449,115.958472 C42.8164971,115.958472 71.1185649,161.911829 80.7692699,190.863944 C87.4697595,210.965413 101.820808,222.96629 112.571593,229.516768 C107.771243,219.666049 104.420998,209.265289 102.470855,198.514503 C101.270768,191.814014 100.470709,185.113524 100.470709,178.21302 L100.470709,178.21302 Z M362.039819,50.753708 C362.039819,41.3530212 326.887251,33.602455 281.383927,32.4023673 C285.234208,29.0021189 287.734391,24.1017609 287.734391,18.5513553 C287.734391,8.30060644 279.433784,1.81912231e-14 269.183035,1.81912231e-14 C258.932286,1.81912231e-14 250.63168,8.30060644 250.63168,18.5513553 C250.63168,24.1017609 253.131863,29.0021189 256.982144,32.4023673 C211.478819,33.602455 176.376255,41.3530212 176.376255,50.753708 L176.376255,55.3540441 L362.039819,55.3540441 L362.039819,50.753708 Z" id="形状" fill="#3DB6A4" fill-rule="nonzero"></path>
            <path d="M305.061463,156.64316 C311.002251,163.702207 313.97304,173.688708 313.97304,186.60509 C313.97304,199.592636 310.969796,209.616337 304.963308,216.672958 C298.956028,223.732005 290.011205,227.720459 278.130421,228.636704 L278.130421,144.150532 C290.143398,145.420982 299.119884,149.585731 305.061463,156.64316 Z M257.648925,228.636704 C245.668412,227.57813 236.700299,223.554902 230.742231,216.56702 C224.784948,209.579946 221.806306,199.592636 221.806306,186.60509 C221.806306,173.688708 224.784948,163.702207 230.742231,156.64316 C236.700299,149.585731 245.668412,145.420982 257.648925,144.150532 L257.648925,228.636704 Z M298.971756,115.988474 L236.807591,115.988474 L236.807591,120.335709 C245.203272,120.478268 250.711571,121.767778 253.330868,124.206668 C255.950975,126.645559 257.260624,131.364581 257.260624,138.363735 L257.260624,139.530126 C238.050015,140.23725 223.070455,144.815334 212.325181,153.262756 C201.577478,161.710989 196.204436,173.039558 196.204436,187.249275 C196.204436,200.682207 201.627693,211.65762 212.475827,220.176322 C223.322341,228.695834 238.250877,233.661904 257.260624,235.075343 L257.260624,236.772279 C257.260624,243.629684 255.849735,248.348707 253.028766,250.928536 C250.207798,253.509985 244.799929,254.870774 236.807591,255.011713 L236.807591,259.358949 L298.971756,259.358949 L298.971756,255.011713 C291.113055,254.870774 285.77322,253.544815 282.952251,251.034645 C280.131283,248.526095 278.721204,243.982841 278.721204,237.408124 L278.721204,235.075343 C297.662107,233.661904 312.538808,228.695834 323.354545,220.176322 C334.167852,211.65762 339.57491,200.682207 339.57491,187.249275 C339.57491,172.969899 334.218067,161.623509 323.505191,153.209297 C312.790694,144.797514 297.863779,140.23725 278.721204,139.530126 L278.721204,138.363735 C278.721204,131.435861 280.030852,126.734658 282.650149,124.259318 C285.269446,121.785598 290.710522,120.478268 298.971756,120.335709 L298.971756,115.988474 Z" id="符号F" fill="#FFFFFF"></path>
        </g>
    </g>
</svg>